<mxfile host="app.diagrams.net" modified="2024-05-18T08:15:06.858Z" agent="Mozilla/5.0 (Windows NT 10.0; Win64; x64) AppleWebKit/537.36 (KHTML, like Gecko) Chrome/124.0.0.0 Safari/537.36 Edg/124.0.0.0" etag="LVcFJoE7x5mWd5oRD1va" version="24.4.4" type="device">
  <diagram id="C5RBs43oDa-KdzZeNtuy" name="Page-1">
    <mxGraphModel dx="377" dy="776" grid="1" gridSize="10" guides="1" tooltips="1" connect="1" arrows="1" fold="1" page="1" pageScale="1" pageWidth="827" pageHeight="1169" math="0" shadow="0">
      <root>
        <mxCell id="WIyWlLk6GJQsqaUBKTNV-0" />
        <mxCell id="WIyWlLk6GJQsqaUBKTNV-1" parent="WIyWlLk6GJQsqaUBKTNV-0" />
        <mxCell id="WIyWlLk6GJQsqaUBKTNV-2" value="" style="rounded=0;html=1;jettySize=auto;orthogonalLoop=1;fontSize=11;endArrow=block;endFill=0;endSize=8;strokeWidth=1;shadow=0;labelBackgroundColor=none;edgeStyle=orthogonalEdgeStyle;exitX=0.5;exitY=1;exitDx=0;exitDy=0;entryX=0.5;entryY=0;entryDx=0;entryDy=0;" parent="WIyWlLk6GJQsqaUBKTNV-1" source="kcQ00IGPuy7ODpObayQN-0" target="kcQ00IGPuy7ODpObayQN-2" edge="1">
          <mxGeometry relative="1" as="geometry">
            <mxPoint x="220" y="120" as="sourcePoint" />
            <mxPoint x="220" y="170" as="targetPoint" />
          </mxGeometry>
        </mxCell>
        <mxCell id="kcQ00IGPuy7ODpObayQN-0" value="Start" style="ellipse;whiteSpace=wrap;html=1;" vertex="1" parent="WIyWlLk6GJQsqaUBKTNV-1">
          <mxGeometry x="160" y="80" width="120" height="40" as="geometry" />
        </mxCell>
        <mxCell id="kcQ00IGPuy7ODpObayQN-1" value="Finish" style="ellipse;whiteSpace=wrap;html=1;" vertex="1" parent="WIyWlLk6GJQsqaUBKTNV-1">
          <mxGeometry x="160" y="830" width="120" height="40" as="geometry" />
        </mxCell>
        <mxCell id="kcQ00IGPuy7ODpObayQN-5" style="edgeStyle=orthogonalEdgeStyle;rounded=0;orthogonalLoop=1;jettySize=auto;html=1;exitX=0.5;exitY=1;exitDx=0;exitDy=0;" edge="1" parent="WIyWlLk6GJQsqaUBKTNV-1" source="kcQ00IGPuy7ODpObayQN-2" target="kcQ00IGPuy7ODpObayQN-4">
          <mxGeometry relative="1" as="geometry" />
        </mxCell>
        <mxCell id="kcQ00IGPuy7ODpObayQN-2" value="Understand business problem and define objective." style="rounded=1;whiteSpace=wrap;html=1;" vertex="1" parent="WIyWlLk6GJQsqaUBKTNV-1">
          <mxGeometry x="120" y="170" width="200" height="60" as="geometry" />
        </mxCell>
        <mxCell id="kcQ00IGPuy7ODpObayQN-10" style="edgeStyle=orthogonalEdgeStyle;rounded=0;orthogonalLoop=1;jettySize=auto;html=1;exitX=0.5;exitY=1;exitDx=0;exitDy=0;entryX=0.5;entryY=0;entryDx=0;entryDy=0;" edge="1" parent="WIyWlLk6GJQsqaUBKTNV-1" source="kcQ00IGPuy7ODpObayQN-4" target="kcQ00IGPuy7ODpObayQN-6">
          <mxGeometry relative="1" as="geometry" />
        </mxCell>
        <mxCell id="kcQ00IGPuy7ODpObayQN-4" value="Generate Dataset" style="rounded=1;whiteSpace=wrap;html=1;" vertex="1" parent="WIyWlLk6GJQsqaUBKTNV-1">
          <mxGeometry x="160" y="280" width="120" height="60" as="geometry" />
        </mxCell>
        <mxCell id="kcQ00IGPuy7ODpObayQN-11" style="edgeStyle=orthogonalEdgeStyle;rounded=0;orthogonalLoop=1;jettySize=auto;html=1;exitX=0.5;exitY=1;exitDx=0;exitDy=0;entryX=0.5;entryY=0;entryDx=0;entryDy=0;" edge="1" parent="WIyWlLk6GJQsqaUBKTNV-1" source="kcQ00IGPuy7ODpObayQN-6" target="kcQ00IGPuy7ODpObayQN-7">
          <mxGeometry relative="1" as="geometry" />
        </mxCell>
        <mxCell id="kcQ00IGPuy7ODpObayQN-6" value="Check the Central Tendency &amp;amp; Variability of data" style="rounded=1;whiteSpace=wrap;html=1;" vertex="1" parent="WIyWlLk6GJQsqaUBKTNV-1">
          <mxGeometry x="125" y="390" width="190" height="60" as="geometry" />
        </mxCell>
        <mxCell id="kcQ00IGPuy7ODpObayQN-12" style="edgeStyle=orthogonalEdgeStyle;rounded=0;orthogonalLoop=1;jettySize=auto;html=1;exitX=0.5;exitY=1;exitDx=0;exitDy=0;entryX=0.5;entryY=0;entryDx=0;entryDy=0;" edge="1" parent="WIyWlLk6GJQsqaUBKTNV-1" source="kcQ00IGPuy7ODpObayQN-7" target="kcQ00IGPuy7ODpObayQN-8">
          <mxGeometry relative="1" as="geometry" />
        </mxCell>
        <mxCell id="kcQ00IGPuy7ODpObayQN-7" value="Define H0, H1, &amp;amp; alpha" style="rounded=1;whiteSpace=wrap;html=1;" vertex="1" parent="WIyWlLk6GJQsqaUBKTNV-1">
          <mxGeometry x="140" y="500" width="160" height="60" as="geometry" />
        </mxCell>
        <mxCell id="kcQ00IGPuy7ODpObayQN-13" style="edgeStyle=orthogonalEdgeStyle;rounded=0;orthogonalLoop=1;jettySize=auto;html=1;exitX=0.5;exitY=1;exitDx=0;exitDy=0;entryX=0.5;entryY=0;entryDx=0;entryDy=0;" edge="1" parent="WIyWlLk6GJQsqaUBKTNV-1" source="kcQ00IGPuy7ODpObayQN-8" target="kcQ00IGPuy7ODpObayQN-9">
          <mxGeometry relative="1" as="geometry" />
        </mxCell>
        <mxCell id="kcQ00IGPuy7ODpObayQN-8" value="Perform a statistical test" style="rounded=1;whiteSpace=wrap;html=1;" vertex="1" parent="WIyWlLk6GJQsqaUBKTNV-1">
          <mxGeometry x="140" y="610" width="160" height="60" as="geometry" />
        </mxCell>
        <mxCell id="kcQ00IGPuy7ODpObayQN-14" style="edgeStyle=orthogonalEdgeStyle;rounded=0;orthogonalLoop=1;jettySize=auto;html=1;exitX=0.5;exitY=1;exitDx=0;exitDy=0;entryX=0.5;entryY=0;entryDx=0;entryDy=0;" edge="1" parent="WIyWlLk6GJQsqaUBKTNV-1" source="kcQ00IGPuy7ODpObayQN-9" target="kcQ00IGPuy7ODpObayQN-1">
          <mxGeometry relative="1" as="geometry" />
        </mxCell>
        <mxCell id="kcQ00IGPuy7ODpObayQN-9" value="Decide whether to reject or accept H0" style="rounded=1;whiteSpace=wrap;html=1;" vertex="1" parent="WIyWlLk6GJQsqaUBKTNV-1">
          <mxGeometry x="155" y="720" width="130" height="60" as="geometry" />
        </mxCell>
      </root>
    </mxGraphModel>
  </diagram>
</mxfile>
